# xmcd
#
# Track frame offsets: 
#        150
#        11740
#        32275
#        45622
#        57347
#        64350
#        86030
#        104122
#        118797
#        132300
#        144185
#        158395
#        169780
#        184185
#        197882
#        211702
#        224187
#        235735
#        255572
#        269160
#        283932
#        292945
#        308015
#        318450
#        328137
#
# Disc length: 4555 seconds
#
# Revision: 0
# Processed by: cddbd v1.5.2PL0 Copyright (c) Steve Scherf et al.
# Submitted via: ExactAudioCopy v1.0b1
#
DISCID=8211c919
DTITLE=mance lipscomb - trouble in mind
DYEAR=2002
DGENRE=Blues
TTITLE0=captain, captain
TTITLE1=careless love
TTITLE2=when death comes creeping in your room
TTITLE3=alabama bound
TTITLE4=buck dance
TTITLE5=night time is the right time
TTITLE6=rocks and gravel make a solid road
TTITLE7=johny take a one on me
TTITLE8=motherless children
TTITLE9=which a way do red river run
TTITLE10=trouble in mind
TTITLE11=ballad of the boll weevill
TTITLE12=boogie in 'a'
TTITLE13=hattie green
TTITLE14=bumble bee blues
TTITLE15=shine on harvest moon
TTITLE16=cocaine done kill my baby
TTITLE17=hey lawdy mama
TTITLE18=is you gonna quit me baby
TTITLE19=frankie was a good woman
TTITLE20=you gonna look like a monkey
TTITLE21=black gal
TTITLE22=casey jones
TTITLE23=after hours 
TTITLE24=angel child
EXTD=
EXTT0=
EXTT1=
EXTT2=
EXTT3=
EXTT4=
EXTT5=
EXTT6=
EXTT7=
EXTT8=
EXTT9=
EXTT10=
EXTT11=
EXTT12=
EXTT13=
EXTT14=
EXTT15=
EXTT16=
EXTT17=
EXTT18=
EXTT19=
EXTT20=
EXTT21=
EXTT22=
EXTT23=
EXTT24=
PLAYORDER=
